<svg width="22" height="22" viewBox="0 0 22 22" fill="none" xmlns="http://www.w3.org/2000/svg">
<path fill-rule="evenodd" clip-rule="evenodd" d="M22 20.7858C22 21.4564 21.4562 22 20.7858 22H1.21421C0.543468 22 0 21.4564 0 20.7858V1.21421C0 0.543554 0.543468 0 1.21421 0H20.7858C21.4562 0 22 0.543554 22 1.21421V20.7858ZM15.1795 13.4804V22H11.7509V13.4804H8.88381V10.1602H11.7509V7.71159C11.7509 4.86999 13.4863 3.32269 16.0213 3.32269C17.2354 3.32269 18.279 3.41309 18.5832 3.45357V6.42313L16.825 6.42391C15.4465 6.42391 15.1795 7.07901 15.1795 8.0403V10.1602H18.4674L18.0392 13.4804H15.1795Z" fill="#EDF0F1"/>
</svg>
