<svg width="17" height="22" viewBox="0 0 17 22" fill="none" xmlns="http://www.w3.org/2000/svg">
<path d="M8.5 0C3.81307 0 0 3.57423 0 7.96753C0 13.4198 7.60667 21.4239 7.93053 21.762C8.23472 22.0796 8.76583 22.079 9.06947 21.762C9.39333 21.4239 17 13.4198 17 7.96753C16.9999 3.57423 13.1869 0 8.5 0ZM8.5 11.9762C6.14189 11.9762 4.22348 10.1779 4.22348 7.96753C4.22348 5.75713 6.14194 3.95889 8.5 3.95889C10.8581 3.95889 12.7765 5.75718 12.7765 7.96758C12.7765 10.178 10.8581 11.9762 8.5 11.9762Z" fill="#EDF0F1"/>
</svg>
