<svg width="185" height="40" viewBox="0 0 185 40" fill="none" xmlns="http://www.w3.org/2000/svg">
<path d="M56.456 29.216C54.792 29.216 53.336 28.864 52.088 28.16C50.84 27.456 49.88 26.448 49.208 25.136C48.536 23.824 48.2 22.288 48.2 20.528C48.2 18.768 48.536 17.24 49.208 15.944C49.88 14.632 50.84 13.624 52.088 12.92C53.336 12.216 54.792 11.864 56.456 11.864C58.552 11.864 60.36 12.44 61.88 13.592C62.12 13.784 62.288 13.976 62.384 14.168C62.48 14.36 62.528 14.6 62.528 14.888C62.528 15.304 62.408 15.664 62.168 15.968C61.944 16.256 61.664 16.4 61.328 16.4C61.104 16.4 60.904 16.376 60.728 16.328C60.568 16.264 60.384 16.16 60.176 16.016C59.536 15.6 58.944 15.304 58.4 15.128C57.856 14.936 57.272 14.84 56.648 14.84C55.112 14.84 53.952 15.32 53.168 16.28C52.4 17.224 52.016 18.64 52.016 20.528C52.016 24.336 53.56 26.24 56.648 26.24C57.24 26.24 57.8 26.152 58.328 25.976C58.856 25.784 59.472 25.48 60.176 25.064C60.416 24.92 60.616 24.824 60.776 24.776C60.936 24.712 61.12 24.68 61.328 24.68C61.664 24.68 61.944 24.832 62.168 25.136C62.408 25.424 62.528 25.776 62.528 26.192C62.528 26.48 62.472 26.728 62.36 26.936C62.264 27.128 62.104 27.312 61.88 27.488C60.36 28.64 58.552 29.216 56.456 29.216ZM70.0872 29.192C68.8393 29.192 67.7433 28.944 66.7993 28.448C65.8553 27.936 65.1273 27.224 64.6152 26.312C64.1033 25.384 63.8473 24.296 63.8473 23.048C63.8473 21.8 64.1033 20.72 64.6152 19.808C65.1273 18.88 65.8553 18.168 66.7993 17.672C67.7433 17.176 68.8393 16.928 70.0872 16.928C71.3353 16.928 72.4313 17.176 73.3753 17.672C74.3193 18.168 75.0473 18.88 75.5593 19.808C76.0713 20.72 76.3273 21.8 76.3273 23.048C76.3273 24.296 76.0713 25.384 75.5593 26.312C75.0473 27.224 74.3193 27.936 73.3753 28.448C72.4313 28.944 71.3353 29.192 70.0872 29.192ZM70.0872 26.432C71.8473 26.432 72.7273 25.304 72.7273 23.048C72.7273 21.912 72.4953 21.064 72.0313 20.504C71.5833 19.944 70.9353 19.664 70.0872 19.664C68.3273 19.664 67.4473 20.792 67.4473 23.048C67.4473 25.304 68.3273 26.432 70.0872 26.432ZM85.5646 16.976C86.0446 16.944 86.4206 17.056 86.6926 17.312C86.9806 17.552 87.1246 17.92 87.1246 18.416C87.1246 18.944 86.9966 19.336 86.7406 19.592C86.4846 19.848 86.0286 20.008 85.3726 20.072L84.6526 20.144C83.7726 20.24 83.1326 20.528 82.7326 21.008C82.3486 21.488 82.1566 22.104 82.1566 22.856V27.44C82.1566 28 81.9806 28.424 81.6286 28.712C81.2926 29 80.8686 29.144 80.3566 29.144C79.8286 29.144 79.3886 29 79.0366 28.712C78.7006 28.424 78.5326 28 78.5326 27.44V18.632C78.5326 18.104 78.7086 17.696 79.0606 17.408C79.4126 17.12 79.8366 16.976 80.3326 16.976C80.8126 16.976 81.2126 17.12 81.5326 17.408C81.8526 17.68 82.0126 18.064 82.0126 18.56V19.208C82.3006 18.52 82.7326 17.992 83.3086 17.624C83.9006 17.256 84.5406 17.048 85.2286 17L85.5646 16.976ZM95.5574 16.928C96.9654 16.928 98.0134 17.344 98.7014 18.176C99.3894 18.992 99.7334 20.232 99.7334 21.896V27.44C99.7334 27.968 99.5654 28.384 99.2294 28.688C98.9094 28.992 98.4694 29.144 97.9094 29.144C97.3494 29.144 96.9094 28.992 96.5894 28.688C96.2694 28.384 96.1094 27.968 96.1094 27.44V22.064C96.1094 21.264 95.9574 20.68 95.6534 20.312C95.3654 19.944 94.9094 19.76 94.2854 19.76C93.5334 19.76 92.9254 20 92.4614 20.48C92.0134 20.96 91.7894 21.6 91.7894 22.4V27.44C91.7894 27.968 91.6294 28.384 91.3094 28.688C90.9894 28.992 90.5494 29.144 89.9894 29.144C89.4294 29.144 88.9814 28.992 88.6454 28.688C88.3254 28.384 88.1654 27.968 88.1654 27.44V18.632C88.1654 18.136 88.3334 17.736 88.6694 17.432C89.0214 17.128 89.4694 16.976 90.0134 16.976C90.5094 16.976 90.9094 17.128 91.2134 17.432C91.5334 17.72 91.6934 18.096 91.6934 18.56V18.896C92.1094 18.256 92.6454 17.768 93.3014 17.432C93.9734 17.096 94.7254 16.928 95.5574 16.928ZM111.895 25.496C112.215 25.496 112.471 25.624 112.663 25.88C112.871 26.136 112.975 26.464 112.975 26.864C112.975 27.136 112.895 27.392 112.735 27.632C112.575 27.856 112.351 28.048 112.063 28.208C111.519 28.496 110.887 28.736 110.167 28.928C109.447 29.104 108.783 29.192 108.175 29.192C106.895 29.192 105.775 28.944 104.815 28.448C103.871 27.952 103.143 27.248 102.631 26.336C102.119 25.408 101.863 24.32 101.863 23.072C101.863 21.872 102.111 20.808 102.607 19.88C103.103 18.952 103.791 18.232 104.671 17.72C105.551 17.192 106.551 16.928 107.671 16.928C108.743 16.928 109.679 17.168 110.479 17.648C111.295 18.112 111.927 18.784 112.375 19.664C112.823 20.528 113.047 21.544 113.047 22.712C113.047 23.064 112.959 23.336 112.783 23.528C112.623 23.704 112.391 23.792 112.087 23.792H105.367C105.479 24.736 105.767 25.424 106.231 25.856C106.695 26.272 107.359 26.48 108.223 26.48C108.687 26.48 109.103 26.424 109.471 26.312C109.839 26.2 110.247 26.048 110.695 25.856C110.919 25.76 111.135 25.68 111.343 25.616C111.551 25.536 111.735 25.496 111.895 25.496ZM107.767 19.424C107.079 19.424 106.527 19.648 106.111 20.096C105.695 20.528 105.447 21.16 105.367 21.992H109.999C109.951 21.144 109.735 20.504 109.351 20.072C108.983 19.64 108.455 19.424 107.767 19.424ZM122.268 16.976C122.748 16.944 123.124 17.056 123.396 17.312C123.684 17.552 123.828 17.92 123.828 18.416C123.828 18.944 123.7 19.336 123.444 19.592C123.188 19.848 122.732 20.008 122.076 20.072L121.356 20.144C120.476 20.24 119.836 20.528 119.436 21.008C119.052 21.488 118.86 22.104 118.86 22.856V27.44C118.86 28 118.684 28.424 118.332 28.712C117.996 29 117.572 29.144 117.06 29.144C116.532 29.144 116.092 29 115.74 28.712C115.404 28.424 115.236 28 115.236 27.44V18.632C115.236 18.104 115.412 17.696 115.764 17.408C116.116 17.12 116.54 16.976 117.036 16.976C117.516 16.976 117.916 17.12 118.236 17.408C118.556 17.68 118.716 18.064 118.716 18.56V19.208C119.004 18.52 119.436 17.992 120.012 17.624C120.604 17.256 121.244 17.048 121.932 17L122.268 16.976ZM131.253 29.216C129.989 29.216 128.813 29.072 127.725 28.784C126.637 28.48 125.749 28.056 125.061 27.512C124.821 27.336 124.645 27.152 124.533 26.96C124.437 26.752 124.389 26.496 124.389 26.192C124.389 25.792 124.509 25.44 124.749 25.136C125.005 24.832 125.293 24.68 125.613 24.68C125.789 24.68 125.957 24.712 126.117 24.776C126.293 24.824 126.501 24.92 126.741 25.064C127.429 25.496 128.125 25.816 128.829 26.024C129.533 26.216 130.309 26.312 131.157 26.312C132.213 26.312 133.021 26.136 133.581 25.784C134.141 25.432 134.421 24.928 134.421 24.272C134.421 23.776 134.157 23.376 133.629 23.072C133.117 22.768 132.197 22.48 130.869 22.208C129.381 21.904 128.189 21.536 127.293 21.104C126.413 20.672 125.765 20.136 125.349 19.496C124.949 18.856 124.749 18.08 124.749 17.168C124.749 16.16 125.037 15.256 125.613 14.456C126.205 13.64 127.013 13.008 128.037 12.56C129.077 12.096 130.245 11.864 131.541 11.864C133.813 11.864 135.685 12.432 137.157 13.568C137.397 13.76 137.565 13.96 137.661 14.168C137.773 14.36 137.829 14.6 137.829 14.888C137.829 15.288 137.701 15.64 137.445 15.944C137.205 16.248 136.925 16.4 136.605 16.4C136.429 16.4 136.261 16.376 136.101 16.328C135.957 16.28 135.749 16.176 135.477 16.016C134.821 15.6 134.213 15.288 133.653 15.08C133.109 14.872 132.413 14.768 131.565 14.768C130.589 14.768 129.821 14.96 129.261 15.344C128.701 15.712 128.421 16.224 128.421 16.88C128.421 17.264 128.525 17.584 128.733 17.84C128.957 18.08 129.317 18.296 129.813 18.488C130.325 18.68 131.045 18.88 131.973 19.088C134.149 19.568 135.709 20.184 136.653 20.936C137.613 21.688 138.093 22.72 138.093 24.032C138.093 25.056 137.805 25.96 137.229 26.744C136.669 27.528 135.869 28.136 134.829 28.568C133.805 29 132.613 29.216 131.253 29.216ZM146.819 26.504C147.299 26.536 147.651 26.656 147.875 26.864C148.099 27.072 148.211 27.376 148.211 27.776C148.211 28.24 148.027 28.592 147.659 28.832C147.291 29.072 146.763 29.168 146.075 29.12L145.403 29.072C142.603 28.848 141.203 27.384 141.203 24.68V19.928H140.243C139.715 19.928 139.315 19.816 139.043 19.592C138.771 19.352 138.635 19.016 138.635 18.584C138.635 18.136 138.771 17.8 139.043 17.576C139.315 17.336 139.715 17.216 140.243 17.216H141.203V15.344C141.203 14.816 141.363 14.4 141.683 14.096C142.019 13.792 142.467 13.64 143.027 13.64C143.587 13.64 144.027 13.792 144.347 14.096C144.667 14.4 144.827 14.816 144.827 15.344V17.216H146.507C147.595 17.216 148.139 17.672 148.139 18.584C148.139 19.016 148.003 19.352 147.731 19.592C147.459 19.816 147.051 19.928 146.507 19.928H144.827V24.944C144.827 25.424 144.939 25.792 145.163 26.048C145.387 26.288 145.715 26.424 146.147 26.456L146.819 26.504ZM155.212 29.192C153.964 29.192 152.868 28.944 151.924 28.448C150.98 27.936 150.252 27.224 149.74 26.312C149.228 25.384 148.972 24.296 148.972 23.048C148.972 21.8 149.228 20.72 149.74 19.808C150.252 18.88 150.98 18.168 151.924 17.672C152.868 17.176 153.964 16.928 155.212 16.928C156.46 16.928 157.556 17.176 158.5 17.672C159.444 18.168 160.172 18.88 160.684 19.808C161.196 20.72 161.452 21.8 161.452 23.048C161.452 24.296 161.196 25.384 160.684 26.312C160.172 27.224 159.444 27.936 158.5 28.448C157.556 28.944 156.46 29.192 155.212 29.192ZM155.212 26.432C156.972 26.432 157.852 25.304 157.852 23.048C157.852 21.912 157.62 21.064 157.156 20.504C156.708 19.944 156.06 19.664 155.212 19.664C153.452 19.664 152.572 20.792 152.572 23.048C152.572 25.304 153.452 26.432 155.212 26.432ZM170.69 16.976C171.17 16.944 171.546 17.056 171.818 17.312C172.106 17.552 172.25 17.92 172.25 18.416C172.25 18.944 172.122 19.336 171.866 19.592C171.61 19.848 171.154 20.008 170.498 20.072L169.778 20.144C168.898 20.24 168.258 20.528 167.858 21.008C167.474 21.488 167.282 22.104 167.282 22.856V27.44C167.282 28 167.106 28.424 166.754 28.712C166.418 29 165.994 29.144 165.482 29.144C164.954 29.144 164.514 29 164.162 28.712C163.826 28.424 163.658 28 163.658 27.44V18.632C163.658 18.104 163.834 17.696 164.186 17.408C164.538 17.12 164.962 16.976 165.458 16.976C165.938 16.976 166.338 17.12 166.658 17.408C166.978 17.68 167.138 18.064 167.138 18.56V19.208C167.426 18.52 167.858 17.992 168.434 17.624C169.026 17.256 169.666 17.048 170.354 17L170.69 16.976ZM182.512 25.496C182.832 25.496 183.088 25.624 183.28 25.88C183.488 26.136 183.592 26.464 183.592 26.864C183.592 27.136 183.512 27.392 183.352 27.632C183.192 27.856 182.968 28.048 182.68 28.208C182.136 28.496 181.504 28.736 180.784 28.928C180.064 29.104 179.4 29.192 178.792 29.192C177.512 29.192 176.392 28.944 175.432 28.448C174.488 27.952 173.76 27.248 173.248 26.336C172.736 25.408 172.48 24.32 172.48 23.072C172.48 21.872 172.728 20.808 173.224 19.88C173.72 18.952 174.408 18.232 175.288 17.72C176.168 17.192 177.168 16.928 178.288 16.928C179.36 16.928 180.296 17.168 181.096 17.648C181.912 18.112 182.544 18.784 182.992 19.664C183.44 20.528 183.664 21.544 183.664 22.712C183.664 23.064 183.576 23.336 183.4 23.528C183.24 23.704 183.008 23.792 182.704 23.792H175.984C176.096 24.736 176.384 25.424 176.848 25.856C177.312 26.272 177.976 26.48 178.84 26.48C179.304 26.48 179.72 26.424 180.088 26.312C180.456 26.2 180.864 26.048 181.312 25.856C181.536 25.76 181.752 25.68 181.96 25.616C182.168 25.536 182.352 25.496 182.512 25.496ZM178.384 19.424C177.696 19.424 177.144 19.648 176.728 20.096C176.312 20.528 176.064 21.16 175.984 21.992H180.616C180.568 21.144 180.352 20.504 179.968 20.072C179.6 19.64 179.072 19.424 178.384 19.424Z" fill="#EDF0F1"/>
<path fill-rule="evenodd" clip-rule="evenodd" d="M7.6 1H30.4C34.5974 1 38 4.40264 38 8.6V31.4C38 35.5974 34.5974 39 30.4 39H7.6C3.40264 39 0 35.5974 0 31.4V8.6C0 4.40264 3.40264 1 7.6 1ZM2.53333 31.4V14.0889C2.53333 17.1203 4.99079 19.5778 8.02222 19.5778C11.0537 19.5778 13.5111 17.1203 13.5111 14.0889C13.5111 17.1203 15.9686 19.5778 19 19.5778C22.0314 19.5778 24.4889 17.1203 24.4889 14.0889C24.4889 17.1203 26.9464 19.5778 29.9778 19.5778C33.0072 19.5778 35.4634 17.1236 35.4667 14.0949V31.4C35.4667 34.1982 33.1982 36.4667 30.4 36.4667H19V25.7264C19 24.1961 17.8658 22.9555 16.4667 22.9555H10.5556C9.15643 22.9555 8.02222 24.1961 8.02222 25.7264V36.4667H7.6C4.80176 36.4667 2.53333 34.1982 2.53333 31.4Z" fill="#EDF0F1"/>
<path d="M22 25.7778C22 24.305 23.1939 23.1111 24.6667 23.1111H30C31.4728 23.1111 32.6667 24.305 32.6667 25.7778V31.1111C32.6667 32.5838 31.4728 33.7778 30 33.7778H24.6667C23.1939 33.7778 22 32.5838 22 31.1111V25.7778Z" fill="#EDF0F1"/>
</svg>
