<svg width="22" height="22" viewBox="0 0 22 22" fill="none" xmlns="http://www.w3.org/2000/svg">
<g clip-path="url(#clip0)">
<path d="M16.005 12.1C17.347 12.1 17.919 10.989 17.93 10.967L21.835 3.883C22.088 3.388 22.033 2.959 21.824 2.662C21.626 2.376 21.263 2.2 20.9 2.2H4.631L3.894 0.627001C3.80559 0.439238 3.66553 0.280546 3.4902 0.169504C3.31487 0.0584622 3.11153 -0.000333147 2.904 1.41993e-06H1.1C0.495 1.41993e-06 0 0.495001 0 1.1C0 1.705 0.495 2.2 1.1 2.2H2.2L6.16 10.549L4.675 13.233C3.872 14.707 4.928 16.5 6.6 16.5H18.7C19.305 16.5 19.8 16.005 19.8 15.4C19.8 14.795 19.305 14.3 18.7 14.3H6.6L7.81 12.1H16.005Z" fill="#EDF0F1"/>
<path d="M6.60002 22C7.81505 22 8.80002 21.015 8.80002 19.8C8.80002 18.5849 7.81505 17.6 6.60002 17.6C5.385 17.6 4.40002 18.5849 4.40002 19.8C4.40002 21.015 5.385 22 6.60002 22Z" fill="#EDF0F1"/>
<path d="M17.6 22C18.8151 22 19.8 21.015 19.8 19.8C19.8 18.5849 18.8151 17.6 17.6 17.6C16.385 17.6 15.4 18.5849 15.4 19.8C15.4 21.015 16.385 22 17.6 22Z" fill="#EDF0F1"/>
</g>
<defs>
<clipPath id="clip0">
<rect width="22" height="22" fill="white"/>
</clipPath>
</defs>
</svg>
