<svg width="30" height="20" viewBox="0 0 30 20" fill="none" xmlns="http://www.w3.org/2000/svg">
<path d="M0 10.5C0 9.67157 0.671573 9 1.5 9H28.5C29.3284 9 30 9.67157 30 10.5C30 11.3284 29.3284 12 28.5 12H1.5C0.671573 12 0 11.3284 0 10.5Z" fill="#EDF0F1"/>
<path d="M0 18.5C0 17.6716 0.671573 17 1.5 17H28.5C29.3284 17 30 17.6716 30 18.5C30 19.3284 29.3284 20 28.5 20H1.5C0.671573 20 0 19.3284 0 18.5Z" fill="#EDF0F1"/>
<path d="M0 1.5C0 0.671573 0.671573 0 1.5 0H28.5C29.3284 0 30 0.671573 30 1.5C30 2.32843 29.3284 3 28.5 3H1.5C0.671573 3 0 2.32843 0 1.5Z" fill="#EDF0F1"/>
</svg>
