<svg width="28" height="22" viewBox="0 0 28 22" fill="none" xmlns="http://www.w3.org/2000/svg">
<path d="M27 3.36906C26.276 4.38888 25.3877 5.25824 24.3352 5.97712C24.3456 6.16992 24.3508 6.38783 24.3508 6.63085C24.3508 7.98116 24.1429 9.3331 23.7271 10.6867C23.3113 12.0403 22.6762 13.3359 21.8217 14.5735C20.9673 15.8112 19.9495 16.9076 18.7683 17.8629C17.5872 18.8181 16.1674 19.5798 14.5089 20.1479C12.8504 20.716 11.073 21 9.1766 21C6.21696 21 3.49143 20.2434 1 18.7301C1.4422 18.7767 1.86631 18.8 2.27232 18.8C4.74485 18.8 6.95323 18.0789 8.89744 16.6365C7.7446 16.6165 6.71215 16.2804 5.80008 15.6283C4.88802 14.9762 4.26035 14.143 3.9171 13.1286C4.25639 13.1898 4.59124 13.2204 4.92169 13.2204C5.39735 13.2204 5.86538 13.1616 6.32581 13.0441C5.09551 12.8108 4.07488 12.2305 3.26391 11.3033C2.45296 10.3761 2.0475 9.30599 2.0475 8.09287V8.03035C2.80265 8.4263 3.60814 8.63691 4.46398 8.66219C3.73517 8.20209 3.15732 7.60209 2.73046 6.86221C2.30357 6.12233 2.09012 5.32166 2.09012 4.46018C2.09012 3.5516 2.33054 2.70555 2.81139 1.92202C4.14931 3.47678 5.77048 4.71939 7.6749 5.64986C9.57934 6.58033 11.6225 7.09709 13.8042 7.20013C13.7112 6.83289 13.6645 6.44966 13.6644 6.05044C13.6644 4.65649 14.1853 3.46626 15.2271 2.47976C16.269 1.49325 17.5259 1 18.9979 1C20.5391 1 21.8372 1.53141 22.8923 2.59422C24.0979 2.3681 25.2266 1.95911 26.2786 1.36724C25.8733 2.57511 25.0923 3.50689 23.9356 4.1626C24.9987 4.04297 26.0202 3.77846 27 3.36906Z" fill="#EDF0F1"/>
</svg>
