<svg width="23" height="22" viewBox="0 0 23 22" fill="none" xmlns="http://www.w3.org/2000/svg">
<path fill-rule="evenodd" clip-rule="evenodd" d="M11.4971 0H11.5029C17.8437 0 23 4.93488 23 11C23 17.0651 17.8437 22 11.5029 22C9.16407 22 6.99488 21.3345 5.17644 20.1823L0.756125 21.5339L2.18931 17.4474C0.81075 15.6365 0 13.4063 0 11C0 4.9335 5.15631 0 11.4971 0ZM15.9378 17.0857C16.8161 16.9042 17.9173 16.2827 18.1947 15.5333C18.4721 14.7825 18.4721 14.1432 18.3916 14.007C18.3266 13.8991 18.1729 13.8283 17.9435 13.7226C17.8837 13.6951 17.8188 13.6652 17.7491 13.6317C17.4113 13.4708 15.7682 12.6939 15.4577 12.5908C15.153 12.4808 14.8626 12.5193 14.6326 12.83C14.5888 12.8886 14.5452 12.9474 14.5018 13.0058C14.2243 13.379 13.9566 13.7391 13.7341 13.9685C13.5315 14.1748 13.2008 14.2009 12.9233 14.0909C12.8932 14.0788 12.8585 14.0654 12.8196 14.0505C12.3803 13.8807 11.4061 13.5043 10.2266 12.5C9.23183 11.653 8.55625 10.5984 8.36075 10.2822C8.1688 9.9649 8.33437 9.77891 8.48739 9.60694C8.49022 9.60373 8.49305 9.60062 8.49587 9.59741C8.59453 9.48063 8.69027 9.38346 8.78649 9.28574C8.8557 9.21543 8.92516 9.1449 8.99612 9.06666C9.00666 9.05504 9.01692 9.04377 9.0269 9.03279C9.17759 8.86705 9.26734 8.76837 9.36845 8.56203C9.48345 8.34891 9.40148 8.12891 9.3196 7.96666C9.2632 7.85304 8.91496 7.04486 8.616 6.35105C8.48806 6.05413 8.36915 5.77816 8.286 5.58653C8.06318 5.07641 7.89356 5.05716 7.55575 5.04341C7.5454 5.04291 7.53495 5.04241 7.52439 5.0419C7.4176 5.03673 7.30001 5.03103 7.1705 5.03103C6.73062 5.03103 6.27206 5.15478 5.99462 5.42566C5.98493 5.43513 5.97482 5.44496 5.96433 5.45517C5.6094 5.80045 4.81875 6.56959 4.81875 8.10278C4.81875 9.63893 5.95826 11.1256 6.1691 11.4007C6.17491 11.4083 6.18002 11.415 6.18438 11.4207C6.19706 11.4366 6.22098 11.4697 6.25577 11.5179C6.68627 12.1143 8.78313 15.0189 11.91 16.2579C14.5521 17.3057 15.337 17.208 15.9378 17.0857Z" fill="#EDF0F1"/>
</svg>
